<svg width="53" height="45" viewBox="0 0 53 45" fill="none" xmlns="http://www.w3.org/2000/svg">
<path d="M52.7198 32.7689C52.4891 32.3172 52.1877 31.9053 51.827 31.5487C51.4124 31.1291 50.9319 30.7802 50.4044 30.516C49.1069 29.8673 47.3867 29.6738 45.3957 30.65C43.8769 31.3546 42.2499 31.7973 40.5835 31.9594C46.786 29.0858 49.4846 21.7282 46.611 15.5257C43.7374 9.32315 36.3798 6.62454 30.1773 9.49814C23.9747 12.3717 21.2761 19.7294 24.1497 25.9319C26.1531 30.2561 30.4612 33.046 35.2266 33.1052L35.2355 33.1022C37.6342 34.4087 40.9168 34.0962 43.628 33.8343C44.5427 33.7263 45.4627 33.6687 46.3838 33.6617C48.4075 33.7123 48.2974 35.8551 48.2795 36.0961C48.2365 36.4088 48.455 36.6971 48.7677 36.7402C48.8944 36.7576 49.0232 36.732 49.1337 36.6675L52.6603 34.626C52.7563 34.5701 52.8339 34.4874 52.8835 34.3879C53.0858 33.9831 53.0204 33.385 52.7198 32.7689ZM27.4799 28.6709C25.37 26.5681 24.1826 23.7126 24.1795 20.7338C24.1716 17.7594 25.3485 14.9044 27.4502 12.7996H27.4531C31.8284 8.4095 38.9343 8.39752 43.3244 12.7728C47.7145 17.1482 47.7265 24.254 43.3512 28.6441C38.9758 33.0342 31.87 33.0462 27.4799 28.6709ZM49.3836 35.2033C49.2259 34.126 48.6188 32.5755 46.4076 32.5249C45.4418 32.5302 44.477 32.5898 43.5178 32.7034L42.5953 32.7898C43.741 32.5553 44.8536 32.1805 45.9076 31.6737H45.9046C47.5177 30.8821 48.8807 31.025 49.9015 31.5339C50.3166 31.7427 50.6945 32.0181 51.0205 32.3493C51.2939 32.618 51.5229 32.9284 51.699 33.2689C51.7823 33.4229 51.8425 33.5884 51.8776 33.7599L49.3836 35.2033Z" fill="white"/>
<path d="M43.7636 15.8977C43.763 15.8967 43.7625 15.8958 43.7619 15.8947C42.8754 14.5498 41.0666 14.1783 39.7217 15.0647C38.4999 15.87 38.0641 17.4559 38.7026 18.7726L38.7115 18.8142C39.5186 20.206 41.3003 20.6815 42.6935 19.8767C44.0878 19.0734 44.5668 17.292 43.7636 15.8977ZM42.1191 18.8856C41.2701 19.3683 40.1909 19.0792 39.6966 18.2369L39.6817 18.2101C39.464 17.8097 39.4076 17.3412 39.524 16.9006C39.7922 15.9516 40.7789 15.3997 41.7279 15.6679C42.1638 15.7911 42.5367 16.0754 42.7709 16.4631C43.2529 17.3129 42.9625 18.3924 42.1191 18.8856Z" fill="white"/>
<path d="M37.0271 19.091C36.5919 18.6545 36.0007 18.4092 35.3843 18.4095C34.1007 18.4087 33.0594 19.4486 33.0585 20.7323C33.0577 22.0159 34.0977 23.0573 35.3813 23.0581C36.665 23.0589 37.7063 22.0189 37.7071 20.7353C37.7075 20.1187 37.4629 19.5272 37.0271 19.091ZM36.2236 21.5671C35.7606 22.0339 35.0069 22.0369 34.5401 21.574C34.0733 21.111 34.0702 20.3573 34.5332 19.8905C34.9962 19.4237 35.7499 19.4207 36.2166 19.8837C36.4432 20.1084 36.5701 20.4147 36.5687 20.7338C36.5691 21.0464 36.4448 21.3462 36.2236 21.5671Z" fill="#CD2E71"/>
<path d="M32.0839 22.6861L32.0571 22.6533C31.2521 21.2593 29.4699 20.7811 28.0751 21.5849C26.6773 22.3853 26.193 24.1673 26.9934 25.5652C26.9949 25.5677 26.9964 25.5703 26.9978 25.5728C27.3878 26.2456 28.0309 26.7342 28.7834 26.9299C29.5175 27.1271 30.2995 27.0289 30.9619 26.6561L30.9976 26.6353C32.38 25.8384 32.8643 24.0778 32.0839 22.6861ZM30.4233 25.6353L30.3965 25.6502C29.554 26.1032 28.5041 25.8119 28.0156 24.9895C27.7766 24.5874 27.707 24.1068 27.8222 23.6533L27.8252 23.6563C27.9464 23.2013 28.2443 22.8135 28.6525 22.5789C29.5016 22.0964 30.5808 22.3853 31.075 23.2277L31.0899 23.2545C31.5419 24.0985 31.2478 25.1488 30.4233 25.6353Z" fill="white"/>
<path d="M42.7233 21.6266L42.7322 21.6087L42.7024 21.5909C41.308 20.7847 39.5239 21.2615 38.7177 22.6559C38.7176 22.6561 38.7176 22.6562 38.7175 22.6563C37.8957 24.0427 38.3534 25.8328 39.7398 26.6546C41.1262 27.4765 42.9163 27.0187 43.7381 25.6323V25.6145L43.753 25.5877C44.551 24.208 44.0922 22.4431 42.7233 21.6266ZM42.7917 24.9687C42.7761 24.9925 42.7621 25.0173 42.75 25.0431C42.1483 25.8245 41.0271 25.97 40.2458 25.3683C39.5937 24.8661 39.3693 23.9832 39.7025 23.2307C40.1891 22.4062 41.2393 22.1121 42.0833 22.564L42.1429 22.5968C42.9577 23.0922 43.2394 24.1405 42.7827 24.9776L42.7917 24.9687Z" fill="white"/>
<path d="M35.3863 11.0616C33.7739 11.061 32.4664 12.3677 32.4658 13.9801C32.4655 14.7552 32.7735 15.4986 33.3218 16.0465C33.8684 16.594 34.6105 16.9014 35.3842 16.9006C36.9966 16.9012 38.3042 15.5945 38.3048 13.9822C38.3054 12.3697 36.9987 11.0622 35.3863 11.0616ZM36.6759 15.2491C35.9814 15.9493 34.8508 15.9539 34.1507 15.2594C33.8115 14.923 33.6213 14.4648 33.6225 13.9871C33.6214 13.5171 33.8077 13.0662 34.1403 12.7341C34.8348 12.034 35.9654 12.0293 36.6656 12.7238C37.3658 13.4183 37.3704 14.5489 36.6759 15.2491Z" fill="white"/>
<path d="M35.3863 24.5699C33.7739 24.5693 32.4664 25.876 32.4658 27.4884C32.4655 28.2635 32.7735 29.0069 33.3218 29.5548C33.8684 30.1023 34.6105 30.4097 35.3842 30.4089C36.9966 30.4095 38.3042 29.1028 38.3048 27.4904C38.3054 25.878 36.9987 24.5705 35.3863 24.5699ZM36.6759 28.7544C35.9814 29.4546 34.8508 29.4592 34.1507 28.7647C33.8115 28.4283 33.6213 27.9701 33.6225 27.4924C33.6214 27.0225 33.8077 26.5715 34.1403 26.2395C34.8348 25.5393 35.9654 25.5347 36.6656 26.2291C37.3658 26.9236 37.3704 28.0542 36.6759 28.7544Z" fill="white"/>
<path d="M31.0113 14.8288C31.0048 14.825 30.9982 14.8212 30.9917 14.8174C29.618 14.021 27.8595 14.4725 27.0395 15.8322C27.0189 15.8613 27.0009 15.8922 26.9859 15.9245C26.2194 17.3018 26.686 19.0389 28.0394 19.8469L28.0365 19.8588L28.1168 19.9034C29.5075 20.6756 31.2605 20.1911 32.0571 18.8142C32.8688 17.4249 32.4006 15.6405 31.0113 14.8288ZM31.072 18.2398C30.5779 19.0822 29.4986 19.3712 28.6495 18.8886C27.8089 18.3945 27.5201 17.3175 28.0007 16.4691H27.9978L28.0127 16.4393C28.5152 15.6154 29.5815 15.34 30.4203 15.8173C31.2637 16.3105 31.5541 17.39 31.072 18.2398Z" fill="white"/>
<path d="M9.92174 14.0701C6.88758 16.2691 5.74721 19.5878 6.50062 24.0263C7.00399 26.9917 8.2473 29.0935 10.2306 30.3318C10.8852 30.7456 11.6376 31.0934 12.4878 31.375C10.5143 29.6695 9.20568 26.92 8.56176 23.1266C7.92274 19.3621 8.37607 16.3433 9.92174 14.0701ZM14.0395 10.7562C16.7256 10.3002 19.0176 10.8769 20.9152 12.4863L21.3222 10.0697C21.3869 9.69221 21.5589 9.47977 21.8381 9.43237C22.1173 9.38498 22.343 9.43086 22.5152 9.57002C22.6954 9.69792 22.7977 9.83408 22.8222 9.97849C22.8451 10.1133 22.8438 10.2225 22.8184 10.306L21.6621 17.4113C21.6214 17.755 21.447 17.953 21.1389 18.0052C20.8404 18.0559 20.6051 18.0117 20.4329 17.8725C20.2607 17.7333 20.1648 17.606 20.1452 17.4905C20.1239 17.3653 20.126 17.2609 20.1514 17.1774L20.6173 14.3199C19.5767 13.1494 18.3319 12.4395 16.883 12.1902C16.4044 12.1129 15.8281 12.1315 15.1541 12.2459C14.4898 12.3587 13.8339 12.6087 13.1864 12.9959C12.5486 13.3816 12.009 13.8496 11.5675 14.4C11.1357 14.9487 10.79 15.5671 10.5303 16.255C10.2691 16.9333 10.0874 17.6426 9.98524 18.383C9.77752 19.7852 9.80849 21.2806 10.0781 22.8692C10.4753 25.2088 11.1901 27.2023 12.2225 28.8496C13.0226 30.1203 13.9916 30.9563 15.1295 31.3575C15.7193 31.5644 16.3993 31.6025 17.1696 31.4718C17.9494 31.3394 18.6944 31.0891 19.4045 30.7209C20.1243 30.3511 20.7539 29.8877 21.2932 29.3305C22.4345 28.176 23.1351 26.7892 23.3952 25.1701C23.4341 24.7574 23.6027 24.5257 23.9012 24.475C24.1997 24.4244 24.435 24.4686 24.6072 24.6078C24.7794 24.7469 24.8819 24.9128 24.9145 25.1053L24.944 25.2786C24.9376 25.2995 24.9202 25.4015 24.8919 25.5846C24.8732 25.7661 24.8297 26.0063 24.7616 26.3051C24.1983 28.5303 22.9681 30.2695 21.071 31.5227C19.9302 32.271 18.6071 32.7631 17.1019 32.9988C15.608 33.2424 14.1638 33.2251 12.7694 32.9467C11.383 32.6571 10.1597 32.1317 9.0994 31.3707C6.89364 29.8136 5.52192 27.4512 4.98423 24.2837C4.29291 20.2111 4.97996 16.9644 7.04536 14.5435C8.79084 12.5138 11.1222 11.2514 14.0395 10.7562Z" fill="#CD2E71"/>
</svg>
