<svg width="159" height="45" viewBox="0 0 159 45" fill="none" xmlns="http://www.w3.org/2000/svg">
<path d="M52.7198 32.7689C52.4891 32.3172 52.1877 31.9053 51.827 31.5487C51.4124 31.1291 50.9319 30.7802 50.4044 30.516C49.1069 29.8673 47.3867 29.6738 45.3957 30.65C43.8769 31.3546 42.2499 31.7973 40.5835 31.9594C46.786 29.0858 49.4846 21.7282 46.611 15.5257C43.7374 9.32315 36.3798 6.62454 30.1773 9.49814C23.9747 12.3717 21.2761 19.7294 24.1497 25.9319C26.1531 30.2561 30.4612 33.046 35.2266 33.1052L35.2355 33.1022C37.6342 34.4087 40.9168 34.0962 43.628 33.8343C44.5427 33.7263 45.4627 33.6687 46.3838 33.6617C48.4075 33.7123 48.2974 35.8551 48.2795 36.0961C48.2365 36.4088 48.455 36.6971 48.7677 36.7402C48.8944 36.7576 49.0232 36.732 49.1337 36.6675L52.6603 34.626C52.7563 34.5701 52.8339 34.4874 52.8835 34.3879C53.0858 33.9831 53.0204 33.385 52.7198 32.7689ZM27.4799 28.6709C25.37 26.5681 24.1826 23.7126 24.1795 20.7338C24.1716 17.7594 25.3485 14.9044 27.4502 12.7996H27.4531C31.8284 8.4095 38.9343 8.39752 43.3244 12.7728C47.7145 17.1482 47.7265 24.254 43.3512 28.6441C38.9758 33.0342 31.87 33.0462 27.4799 28.6709ZM49.3836 35.2033C49.2259 34.126 48.6188 32.5755 46.4076 32.5249C45.4418 32.5302 44.477 32.5898 43.5178 32.7034L42.5953 32.7898C43.741 32.5553 44.8536 32.1805 45.9076 31.6737H45.9046C47.5177 30.8821 48.8807 31.025 49.9015 31.5339C50.3166 31.7427 50.6945 32.0181 51.0205 32.3493C51.2939 32.618 51.5229 32.9284 51.699 33.2689C51.7823 33.4229 51.8425 33.5884 51.8776 33.7599L49.3836 35.2033Z" fill="white"/>
<path d="M43.7636 15.8977C43.763 15.8967 43.7625 15.8958 43.7619 15.8947C42.8754 14.5498 41.0666 14.1783 39.7217 15.0647C38.4999 15.87 38.0641 17.4559 38.7026 18.7726L38.7115 18.8142C39.5186 20.206 41.3003 20.6815 42.6935 19.8767C44.0878 19.0734 44.5668 17.292 43.7636 15.8977ZM42.1191 18.8856C41.2701 19.3683 40.1909 19.0792 39.6966 18.2369L39.6817 18.2101C39.464 17.8097 39.4076 17.3412 39.524 16.9006C39.7922 15.9516 40.7789 15.3997 41.7279 15.6679C42.1638 15.7911 42.5367 16.0754 42.7709 16.4631C43.2529 17.3129 42.9625 18.3924 42.1191 18.8856Z" fill="white"/>
<path d="M37.0271 19.091C36.5919 18.6545 36.0007 18.4092 35.3843 18.4095C34.1007 18.4087 33.0594 19.4486 33.0585 20.7323C33.0577 22.0159 34.0977 23.0573 35.3813 23.0581C36.665 23.0589 37.7063 22.0189 37.7071 20.7353C37.7075 20.1187 37.4629 19.5272 37.0271 19.091ZM36.2236 21.5671C35.7606 22.0339 35.0069 22.0369 34.5401 21.574C34.0733 21.111 34.0702 20.3573 34.5332 19.8905C34.9962 19.4237 35.7499 19.4207 36.2166 19.8837C36.4432 20.1084 36.5701 20.4147 36.5687 20.7338C36.5691 21.0464 36.4448 21.3462 36.2236 21.5671Z" fill="#CD2E71"/>
<path d="M32.0839 22.6861L32.0571 22.6533C31.2521 21.2593 29.4699 20.7811 28.0751 21.5849C26.6773 22.3853 26.193 24.1673 26.9934 25.5652C26.9949 25.5677 26.9964 25.5703 26.9978 25.5728C27.3878 26.2456 28.0309 26.7342 28.7834 26.9299C29.5175 27.1271 30.2995 27.0289 30.9619 26.6561L30.9976 26.6353C32.38 25.8384 32.8643 24.0778 32.0839 22.6861ZM30.4233 25.6353L30.3965 25.6502C29.554 26.1032 28.5041 25.8119 28.0156 24.9895C27.7766 24.5874 27.707 24.1068 27.8222 23.6533L27.8252 23.6563C27.9464 23.2013 28.2443 22.8135 28.6525 22.5789C29.5016 22.0964 30.5808 22.3853 31.075 23.2277L31.0899 23.2545C31.5419 24.0985 31.2478 25.1488 30.4233 25.6353Z" fill="white"/>
<path d="M42.7233 21.6266L42.7322 21.6087L42.7024 21.5909C41.308 20.7847 39.5239 21.2615 38.7177 22.6559C38.7176 22.6561 38.7176 22.6562 38.7175 22.6563C37.8957 24.0427 38.3534 25.8328 39.7398 26.6546C41.1262 27.4765 42.9163 27.0187 43.7381 25.6323V25.6145L43.753 25.5877C44.551 24.208 44.0922 22.4431 42.7233 21.6266ZM42.7917 24.9687C42.7761 24.9925 42.7621 25.0173 42.75 25.0431C42.1483 25.8245 41.0271 25.97 40.2458 25.3683C39.5937 24.8661 39.3693 23.9832 39.7025 23.2307C40.1891 22.4062 41.2393 22.1121 42.0833 22.564L42.1429 22.5968C42.9577 23.0922 43.2394 24.1405 42.7827 24.9776L42.7917 24.9687Z" fill="white"/>
<path d="M35.3863 11.0616C33.7739 11.061 32.4664 12.3677 32.4658 13.9801C32.4655 14.7552 32.7735 15.4986 33.3218 16.0465C33.8684 16.594 34.6105 16.9014 35.3842 16.9006C36.9966 16.9012 38.3042 15.5945 38.3048 13.9822C38.3054 12.3697 36.9987 11.0622 35.3863 11.0616ZM36.6759 15.2491C35.9814 15.9493 34.8508 15.9539 34.1507 15.2594C33.8115 14.923 33.6213 14.4648 33.6225 13.9871C33.6214 13.5171 33.8077 13.0662 34.1403 12.7341C34.8348 12.034 35.9654 12.0293 36.6656 12.7238C37.3658 13.4183 37.3704 14.5489 36.6759 15.2491Z" fill="white"/>
<path d="M35.3863 24.5699C33.7739 24.5693 32.4664 25.876 32.4658 27.4884C32.4655 28.2635 32.7735 29.0069 33.3218 29.5548C33.8684 30.1023 34.6105 30.4097 35.3842 30.4089C36.9966 30.4095 38.3042 29.1028 38.3048 27.4904C38.3054 25.878 36.9987 24.5705 35.3863 24.5699ZM36.6759 28.7544C35.9814 29.4546 34.8508 29.4592 34.1507 28.7647C33.8115 28.4283 33.6213 27.9701 33.6225 27.4924C33.6214 27.0225 33.8077 26.5715 34.1403 26.2395C34.8348 25.5393 35.9654 25.5347 36.6656 26.2291C37.3658 26.9236 37.3704 28.0542 36.6759 28.7544Z" fill="white"/>
<path d="M31.0113 14.8288C31.0048 14.825 30.9982 14.8212 30.9917 14.8174C29.618 14.021 27.8595 14.4725 27.0395 15.8322C27.0189 15.8613 27.0009 15.8922 26.9859 15.9245C26.2194 17.3018 26.686 19.0389 28.0394 19.8469L28.0365 19.8588L28.1168 19.9034C29.5075 20.6756 31.2605 20.1911 32.0571 18.8142C32.8688 17.4249 32.4006 15.6405 31.0113 14.8288ZM31.072 18.2398C30.5779 19.0822 29.4986 19.3712 28.6495 18.8886C27.8089 18.3945 27.5201 17.3175 28.0007 16.4691H27.9978L28.0127 16.4393C28.5152 15.6154 29.5815 15.34 30.4203 15.8173C31.2637 16.3105 31.5541 17.39 31.072 18.2398Z" fill="white"/>
<path d="M9.92174 14.0701C6.88758 16.2691 5.74721 19.5878 6.50062 24.0263C7.00399 26.9917 8.2473 29.0935 10.2306 30.3318C10.8852 30.7456 11.6376 31.0934 12.4878 31.375C10.5143 29.6695 9.20568 26.92 8.56176 23.1266C7.92274 19.3621 8.37607 16.3433 9.92174 14.0701ZM14.0395 10.7562C16.7256 10.3002 19.0176 10.8769 20.9152 12.4863L21.3222 10.0697C21.3869 9.69221 21.5589 9.47977 21.8381 9.43237C22.1173 9.38498 22.343 9.43086 22.5152 9.57002C22.6954 9.69792 22.7977 9.83408 22.8222 9.97849C22.8451 10.1133 22.8438 10.2225 22.8184 10.306L21.6621 17.4113C21.6214 17.755 21.447 17.953 21.1389 18.0052C20.8404 18.0559 20.6051 18.0117 20.4329 17.8725C20.2607 17.7333 20.1648 17.606 20.1452 17.4905C20.1239 17.3653 20.126 17.2609 20.1514 17.1774L20.6173 14.3199C19.5767 13.1494 18.3319 12.4395 16.883 12.1902C16.4044 12.1129 15.8281 12.1315 15.1541 12.2459C14.4898 12.3587 13.8339 12.6087 13.1864 12.9959C12.5486 13.3816 12.009 13.8496 11.5675 14.4C11.1357 14.9487 10.79 15.5671 10.5303 16.255C10.2691 16.9333 10.0874 17.6426 9.98524 18.383C9.77752 19.7852 9.80849 21.2806 10.0781 22.8692C10.4753 25.2088 11.1901 27.2023 12.2225 28.8496C13.0226 30.1203 13.9916 30.9563 15.1295 31.3575C15.7193 31.5644 16.3993 31.6025 17.1696 31.4718C17.9494 31.3394 18.6944 31.0891 19.4045 30.7209C20.1243 30.3511 20.7539 29.8877 21.2932 29.3305C22.4345 28.176 23.1351 26.7892 23.3952 25.1701C23.4341 24.7574 23.6027 24.5257 23.9012 24.475C24.1997 24.4244 24.435 24.4686 24.6072 24.6078C24.7794 24.7469 24.8819 24.9128 24.9145 25.1053L24.944 25.2786C24.9376 25.2995 24.9202 25.4015 24.8919 25.5846C24.8732 25.7661 24.8297 26.0063 24.7616 26.3051C24.1983 28.5303 22.9681 30.2695 21.071 31.5227C19.9302 32.271 18.6071 32.7631 17.1019 32.9988C15.608 33.2424 14.1638 33.2251 12.7694 32.9467C11.383 32.6571 10.1597 32.1317 9.0994 31.3707C6.89364 29.8136 5.52192 27.4512 4.98423 24.2837C4.29291 20.2111 4.97996 16.9644 7.04536 14.5435C8.79084 12.5138 11.1222 11.2514 14.0395 10.7562Z" fill="#CD2E71"/>
<path d="M68.9844 27.8516C68.4635 28.2995 67.8802 28.6432 67.2344 28.8828C66.5885 29.1224 65.9193 29.2422 65.2266 29.2422C64.6953 29.2422 64.1823 29.1719 63.6875 29.0312C63.1979 28.8958 62.737 28.7031 62.3047 28.4531C61.8776 28.1979 61.487 27.8932 61.1328 27.5391C60.7786 27.1849 60.474 26.7943 60.2188 26.3672C59.9688 25.9349 59.7734 25.474 59.6328 24.9844C59.4974 24.4896 59.4297 23.9766 59.4297 23.4453C59.4297 22.9141 59.4974 22.401 59.6328 21.9062C59.7734 21.4115 59.9688 20.9505 60.2188 20.5234C60.474 20.0911 60.7786 19.6979 61.1328 19.3438C61.487 18.9896 61.8776 18.6875 62.3047 18.4375C62.737 18.1823 63.1979 17.987 63.6875 17.8516C64.1823 17.7109 64.6953 17.6406 65.2266 17.6406C65.9193 17.6406 66.5885 17.7604 67.2344 18C67.8802 18.2344 68.4635 18.5781 68.9844 19.0312L67.7969 20.9844C67.4688 20.6302 67.0807 20.3594 66.6328 20.1719C66.1849 19.9792 65.7161 19.8828 65.2266 19.8828C64.7318 19.8828 64.2682 19.9766 63.8359 20.1641C63.4036 20.3516 63.026 20.6068 62.7031 20.9297C62.3802 21.2474 62.125 21.625 61.9375 22.0625C61.75 22.4948 61.6562 22.9557 61.6562 23.4453C61.6562 23.9349 61.75 24.3958 61.9375 24.8281C62.125 25.2552 62.3802 25.6302 62.7031 25.9531C63.026 26.276 63.4036 26.5312 63.8359 26.7188C64.2682 26.9062 64.7318 27 65.2266 27C65.7161 27 66.1849 26.9062 66.6328 26.7188C67.0807 26.526 67.4688 26.2526 67.7969 25.8984L68.9844 27.8516ZM72.5781 18.3594C72.5781 18.5573 72.5391 18.7422 72.4609 18.9141C72.388 19.0859 72.2865 19.237 72.1562 19.3672C72.026 19.4922 71.8724 19.5938 71.6953 19.6719C71.5234 19.7448 71.3385 19.7812 71.1406 19.7812C70.9427 19.7812 70.7552 19.7448 70.5781 19.6719C70.4062 19.5938 70.2552 19.4922 70.125 19.3672C70 19.237 69.8984 19.0859 69.8203 18.9141C69.7474 18.7422 69.7109 18.5573 69.7109 18.3594C69.7109 18.1667 69.7474 17.9844 69.8203 17.8125C69.8984 17.6354 70 17.4844 70.125 17.3594C70.2552 17.2292 70.4062 17.1276 70.5781 17.0547C70.7552 16.9766 70.9427 16.9375 71.1406 16.9375C71.3385 16.9375 71.5234 16.9766 71.6953 17.0547C71.8724 17.1276 72.026 17.2292 72.1562 17.3594C72.2865 17.4844 72.388 17.6354 72.4609 17.8125C72.5391 17.9844 72.5781 18.1667 72.5781 18.3594ZM72.2109 29H70.0625V20.6328H72.2109V29ZM75.9766 29H73.8438V20.6328H74.3594L75.0625 21.4453C75.4062 21.1328 75.7943 20.8932 76.2266 20.7266C76.6641 20.5547 77.1198 20.4688 77.5938 20.4688C78.1042 20.4688 78.5859 20.5677 79.0391 20.7656C79.4922 20.9583 79.888 21.2266 80.2266 21.5703C80.5651 21.9089 80.8307 22.3073 81.0234 22.7656C81.2214 23.2188 81.3203 23.7031 81.3203 24.2188V29H79.1875V24.2188C79.1875 24 79.1458 23.7943 79.0625 23.6016C78.9792 23.4036 78.8646 23.2318 78.7188 23.0859C78.5729 22.9401 78.4036 22.8255 78.2109 22.7422C78.0182 22.6589 77.8125 22.6172 77.5938 22.6172C77.3698 22.6172 77.1589 22.6589 76.9609 22.7422C76.763 22.8255 76.5911 22.9401 76.4453 23.0859C76.2995 23.2318 76.1849 23.4036 76.1016 23.6016C76.0182 23.7943 75.9766 24 75.9766 24.2188V29ZM86.1719 26.9531C86.2552 26.9792 86.3385 26.9974 86.4219 27.0078C86.5052 27.013 86.5885 27.0156 86.6719 27.0156C86.8802 27.0156 87.0807 26.987 87.2734 26.9297C87.4661 26.8724 87.6458 26.7917 87.8125 26.6875C87.9844 26.5781 88.1354 26.4479 88.2656 26.2969C88.401 26.1406 88.5104 25.9688 88.5938 25.7812L90.1562 27.3516C89.9583 27.6328 89.7292 27.8854 89.4688 28.1094C89.2135 28.3333 88.9349 28.5234 88.6328 28.6797C88.3359 28.8359 88.0208 28.9531 87.6875 29.0312C87.3594 29.1146 87.0208 29.1562 86.6719 29.1562C86.0833 29.1562 85.5286 29.0469 85.0078 28.8281C84.4922 28.6094 84.0391 28.3047 83.6484 27.9141C83.263 27.5234 82.9583 27.0599 82.7344 26.5234C82.5104 25.9818 82.3984 25.388 82.3984 24.7422C82.3984 24.0807 82.5104 23.4766 82.7344 22.9297C82.9583 22.3828 83.263 21.9167 83.6484 21.5312C84.0391 21.1458 84.4922 20.8464 85.0078 20.6328C85.5286 20.4193 86.0833 20.3125 86.6719 20.3125C87.0208 20.3125 87.362 20.3542 87.6953 20.4375C88.0286 20.5208 88.3438 20.6406 88.6406 20.7969C88.9427 20.9531 89.224 21.1458 89.4844 21.375C89.7448 21.599 89.974 21.8516 90.1719 22.1328L86.1719 26.9531ZM87.2656 22.5547C87.1667 22.5182 87.0677 22.4948 86.9688 22.4844C86.875 22.474 86.776 22.4688 86.6719 22.4688C86.3802 22.4688 86.1042 22.5234 85.8438 22.6328C85.5885 22.737 85.3646 22.888 85.1719 23.0859C84.9844 23.2839 84.8359 23.5234 84.7266 23.8047C84.6172 24.0807 84.5625 24.3932 84.5625 24.7422C84.5625 24.8203 84.5651 24.9089 84.5703 25.0078C84.5807 25.1068 84.5938 25.2083 84.6094 25.3125C84.6302 25.4115 84.6536 25.5078 84.6797 25.6016C84.7057 25.6953 84.7396 25.7786 84.7812 25.8516L87.2656 22.5547ZM101.891 29H99.7656V23.6875C99.7656 23.5417 99.737 23.4036 99.6797 23.2734C99.6276 23.1432 99.5521 23.0286 99.4531 22.9297C99.3542 22.8307 99.2396 22.7552 99.1094 22.7031C98.9792 22.6458 98.8411 22.6172 98.6953 22.6172C98.5495 22.6172 98.4115 22.6458 98.2812 22.7031C98.1562 22.7552 98.0443 22.8307 97.9453 22.9297C97.8516 23.0286 97.776 23.1432 97.7188 23.2734C97.6667 23.4036 97.6406 23.5417 97.6406 23.6875V29H95.5078V23.6875C95.5078 23.5417 95.4792 23.4036 95.4219 23.2734C95.3698 23.1432 95.2943 23.0286 95.1953 22.9297C95.0964 22.8307 94.9818 22.7552 94.8516 22.7031C94.7214 22.6458 94.5833 22.6172 94.4375 22.6172C94.2917 22.6172 94.1536 22.6458 94.0234 22.7031C93.8984 22.7552 93.7865 22.8307 93.6875 22.9297C93.5938 23.0286 93.5182 23.1432 93.4609 23.2734C93.4089 23.4036 93.3828 23.5417 93.3828 23.6875V29H91.25V20.6328H91.7656L92.3438 21.2734C92.6406 21.0234 92.9661 20.8307 93.3203 20.6953C93.6797 20.5547 94.0521 20.4844 94.4375 20.4844C94.8281 20.4844 95.2083 20.5573 95.5781 20.7031C95.9531 20.849 96.2812 21.1016 96.5625 21.4609C96.6927 21.2839 96.8411 21.1328 97.0078 21.0078C97.1745 20.8828 97.349 20.7812 97.5312 20.7031C97.7188 20.625 97.9115 20.5703 98.1094 20.5391C98.3073 20.5026 98.5026 20.4844 98.6953 20.4844C99.138 20.4844 99.5521 20.5677 99.9375 20.7344C100.328 20.901 100.667 21.1302 100.953 21.4219C101.245 21.7083 101.474 22.0469 101.641 22.4375C101.807 22.8281 101.891 23.2448 101.891 23.6875V29ZM111.555 29H111.039L110.211 27.8516C110.008 28.0339 109.792 28.2057 109.562 28.3672C109.339 28.5234 109.102 28.6615 108.852 28.7812C108.602 28.8958 108.344 28.987 108.078 29.0547C107.818 29.1224 107.552 29.1562 107.281 29.1562C106.693 29.1562 106.138 29.0573 105.617 28.8594C105.102 28.6615 104.648 28.375 104.258 28C103.872 27.6198 103.568 27.1562 103.344 26.6094C103.12 26.0625 103.008 25.4401 103.008 24.7422C103.008 24.0911 103.12 23.4948 103.344 22.9531C103.568 22.4062 103.872 21.9375 104.258 21.5469C104.648 21.1562 105.102 20.8542 105.617 20.6406C106.138 20.4219 106.693 20.3125 107.281 20.3125C107.552 20.3125 107.82 20.3464 108.086 20.4141C108.352 20.4818 108.609 20.5755 108.859 20.6953C109.109 20.8151 109.346 20.9557 109.57 21.1172C109.799 21.2786 110.013 21.4531 110.211 21.6406L111.039 20.6484H111.555V29ZM109.406 24.7422C109.406 24.4505 109.349 24.1693 109.234 23.8984C109.125 23.6224 108.974 23.3802 108.781 23.1719C108.589 22.9583 108.362 22.7891 108.102 22.6641C107.846 22.5339 107.573 22.4688 107.281 22.4688C106.99 22.4688 106.714 22.5182 106.453 22.6172C106.198 22.7161 105.974 22.862 105.781 23.0547C105.594 23.2474 105.445 23.487 105.336 23.7734C105.227 24.0547 105.172 24.3776 105.172 24.7422C105.172 25.1068 105.227 25.4323 105.336 25.7188C105.445 26 105.594 26.237 105.781 26.4297C105.974 26.6224 106.198 26.7682 106.453 26.8672C106.714 26.9661 106.99 27.0156 107.281 27.0156C107.573 27.0156 107.846 26.9531 108.102 26.8281C108.362 26.6979 108.589 26.5286 108.781 26.3203C108.974 26.1068 109.125 25.8646 109.234 25.5938C109.349 25.3177 109.406 25.0339 109.406 24.7422Z" fill="white"/>
<path d="M124.391 23.4453C124.391 23.9766 124.32 24.4896 124.18 24.9844C124.044 25.474 123.852 25.9349 123.602 26.3672C123.352 26.7943 123.049 27.1849 122.695 27.5391C122.341 27.8932 121.951 28.1979 121.523 28.4531C121.096 28.7031 120.635 28.8958 120.141 29.0312C119.646 29.1719 119.133 29.2422 118.602 29.2422C118.07 29.2422 117.557 29.1719 117.062 29.0312C116.573 28.8958 116.112 28.7031 115.68 28.4531C115.253 28.1979 114.862 27.8932 114.508 27.5391C114.154 27.1849 113.849 26.7943 113.594 26.3672C113.344 25.9349 113.148 25.474 113.008 24.9844C112.872 24.4896 112.805 23.9766 112.805 23.4453C112.805 22.9141 112.872 22.401 113.008 21.9062C113.148 21.4115 113.344 20.9505 113.594 20.5234C113.849 20.0964 114.154 19.7057 114.508 19.3516C114.862 18.9974 115.253 18.6953 115.68 18.4453C116.112 18.1953 116.573 18.0026 117.062 17.8672C117.557 17.7266 118.07 17.6562 118.602 17.6562C119.133 17.6562 119.646 17.7266 120.141 17.8672C120.635 18.0026 121.096 18.1953 121.523 18.4453C121.951 18.6953 122.341 18.9974 122.695 19.3516C123.049 19.7057 123.352 20.0964 123.602 20.5234C123.852 20.9505 124.044 21.4115 124.18 21.9062C124.32 22.401 124.391 22.9141 124.391 23.4453ZM122.164 23.4453C122.164 22.9557 122.07 22.4948 121.883 22.0625C121.695 21.625 121.44 21.2474 121.117 20.9297C120.799 20.6068 120.422 20.3516 119.984 20.1641C119.552 19.9766 119.091 19.8828 118.602 19.8828C118.107 19.8828 117.643 19.9766 117.211 20.1641C116.779 20.3516 116.401 20.6068 116.078 20.9297C115.755 21.2474 115.5 21.625 115.312 22.0625C115.125 22.4948 115.031 22.9557 115.031 23.4453C115.031 23.9349 115.125 24.3958 115.312 24.8281C115.5 25.2552 115.755 25.6302 116.078 25.9531C116.401 26.276 116.779 26.5312 117.211 26.7188C117.643 26.9062 118.107 27 118.602 27C119.091 27 119.552 26.9062 119.984 26.7188C120.422 26.5312 120.799 26.276 121.117 25.9531C121.44 25.6302 121.695 25.2552 121.883 24.8281C122.07 24.3958 122.164 23.9349 122.164 23.4453ZM127.773 29H125.641V20.6328H126.156L126.859 21.4453C127.203 21.1328 127.591 20.8932 128.023 20.7266C128.461 20.5547 128.917 20.4688 129.391 20.4688C129.901 20.4688 130.383 20.5677 130.836 20.7656C131.289 20.9583 131.685 21.2266 132.023 21.5703C132.362 21.9089 132.628 22.3073 132.82 22.7656C133.018 23.2188 133.117 23.7031 133.117 24.2188V29H130.984V24.2188C130.984 24 130.943 23.7943 130.859 23.6016C130.776 23.4036 130.661 23.2318 130.516 23.0859C130.37 22.9401 130.201 22.8255 130.008 22.7422C129.815 22.6589 129.609 22.6172 129.391 22.6172C129.167 22.6172 128.956 22.6589 128.758 22.7422C128.56 22.8255 128.388 22.9401 128.242 23.0859C128.096 23.2318 127.982 23.4036 127.898 23.6016C127.815 23.7943 127.773 24 127.773 24.2188V29ZM136.789 29H134.641V17.3047H136.789V29ZM140.938 18.3594C140.938 18.5573 140.898 18.7422 140.82 18.9141C140.747 19.0859 140.646 19.237 140.516 19.3672C140.385 19.4922 140.232 19.5938 140.055 19.6719C139.883 19.7448 139.698 19.7812 139.5 19.7812C139.302 19.7812 139.115 19.7448 138.938 19.6719C138.766 19.5938 138.615 19.4922 138.484 19.3672C138.359 19.237 138.258 19.0859 138.18 18.9141C138.107 18.7422 138.07 18.5573 138.07 18.3594C138.07 18.1667 138.107 17.9844 138.18 17.8125C138.258 17.6354 138.359 17.4844 138.484 17.3594C138.615 17.2292 138.766 17.1276 138.938 17.0547C139.115 16.9766 139.302 16.9375 139.5 16.9375C139.698 16.9375 139.883 16.9766 140.055 17.0547C140.232 17.1276 140.385 17.2292 140.516 17.3594C140.646 17.4844 140.747 17.6354 140.82 17.8125C140.898 17.9844 140.938 18.1667 140.938 18.3594ZM140.57 29H138.422V20.6328H140.57V29ZM144.336 29H142.203V20.6328H142.719L143.422 21.4453C143.766 21.1328 144.154 20.8932 144.586 20.7266C145.023 20.5547 145.479 20.4688 145.953 20.4688C146.464 20.4688 146.945 20.5677 147.398 20.7656C147.852 20.9583 148.247 21.2266 148.586 21.5703C148.924 21.9089 149.19 22.3073 149.383 22.7656C149.581 23.2188 149.68 23.7031 149.68 24.2188V29H147.547V24.2188C147.547 24 147.505 23.7943 147.422 23.6016C147.339 23.4036 147.224 23.2318 147.078 23.0859C146.932 22.9401 146.763 22.8255 146.57 22.7422C146.378 22.6589 146.172 22.6172 145.953 22.6172C145.729 22.6172 145.518 22.6589 145.32 22.7422C145.122 22.8255 144.951 22.9401 144.805 23.0859C144.659 23.2318 144.544 23.4036 144.461 23.6016C144.378 23.7943 144.336 24 144.336 24.2188V29ZM154.531 26.9531C154.615 26.9792 154.698 26.9974 154.781 27.0078C154.865 27.013 154.948 27.0156 155.031 27.0156C155.24 27.0156 155.44 26.987 155.633 26.9297C155.826 26.8724 156.005 26.7917 156.172 26.6875C156.344 26.5781 156.495 26.4479 156.625 26.2969C156.76 26.1406 156.87 25.9688 156.953 25.7812L158.516 27.3516C158.318 27.6328 158.089 27.8854 157.828 28.1094C157.573 28.3333 157.294 28.5234 156.992 28.6797C156.695 28.8359 156.38 28.9531 156.047 29.0312C155.719 29.1146 155.38 29.1562 155.031 29.1562C154.443 29.1562 153.888 29.0469 153.367 28.8281C152.852 28.6094 152.398 28.3047 152.008 27.9141C151.622 27.5234 151.318 27.0599 151.094 26.5234C150.87 25.9818 150.758 25.388 150.758 24.7422C150.758 24.0807 150.87 23.4766 151.094 22.9297C151.318 22.3828 151.622 21.9167 152.008 21.5312C152.398 21.1458 152.852 20.8464 153.367 20.6328C153.888 20.4193 154.443 20.3125 155.031 20.3125C155.38 20.3125 155.721 20.3542 156.055 20.4375C156.388 20.5208 156.703 20.6406 157 20.7969C157.302 20.9531 157.583 21.1458 157.844 21.375C158.104 21.599 158.333 21.8516 158.531 22.1328L154.531 26.9531ZM155.625 22.5547C155.526 22.5182 155.427 22.4948 155.328 22.4844C155.234 22.474 155.135 22.4688 155.031 22.4688C154.74 22.4688 154.464 22.5234 154.203 22.6328C153.948 22.737 153.724 22.888 153.531 23.0859C153.344 23.2839 153.195 23.5234 153.086 23.8047C152.977 24.0807 152.922 24.3932 152.922 24.7422C152.922 24.8203 152.924 24.9089 152.93 25.0078C152.94 25.1068 152.953 25.2083 152.969 25.3125C152.99 25.4115 153.013 25.5078 153.039 25.6016C153.065 25.6953 153.099 25.7786 153.141 25.8516L155.625 22.5547Z" fill="#CD2E71"/>
</svg>
